<svg width="1200" height="900" viewBox="0 0 1200 900" fill="none" xmlns="http://www.w3.org/2000/svg">
  <rect width="1200" height="900" fill="#0B1E3E"/>
  <rect y="560" width="1200" height="340" fill="#102A57"/>
  <circle cx="920" cy="190" r="90" fill="#C1A45F" fill-opacity="0.16"/>
  <rect x="146" y="193" width="456" height="520" fill="#F7F6F2"/>
  <rect x="188" y="261" width="372" height="18" fill="#C1A45F"/>
  <rect x="188" y="314" width="284" height="20" fill="#0B1E3E"/>
  <rect x="188" y="364" width="314" height="14" fill="#5F6B82"/>
  <rect x="188" y="397" width="280" height="14" fill="#5F6B82"/>
  <rect x="188" y="430" width="251" height="14" fill="#5F6B82"/>
  <rect x="188" y="496" width="176" height="42" fill="#C1A45F"/>
  <path d="M690 641C690 551 763 478 854 478C945 478 1018 551 1018 641V713H690V641Z" fill="#F7F6F2"/>
  <circle cx="854" cy="397" r="103" fill="#F7F6F2"/>
  <path d="M778 385C805 336 842 311 891 311C923 311 953 323 979 347" stroke="#C1A45F" stroke-width="18" stroke-linecap="round"/>
  <rect x="753" y="725" width="202" height="28" fill="#C1A45F"/>
</svg>
